<svg width="24" height="24" viewBox="0 0 24 24" fill="none" xmlns="http://www.w3.org/2000/svg">
<path d="M20.9986 20.25C20.9986 20.4489 20.9196 20.6397 20.779 20.7803C20.6383 20.921 20.4476 21 20.2486 21H6.74864C6.54973 21 6.35896 20.921 6.21831 20.7803C6.07766 20.6397 5.99864 20.4489 5.99864 20.25C5.99864 20.0511 6.07766 19.8603 6.21831 19.7197C6.35896 19.579 6.54973 19.5 6.74864 19.5H20.2486C20.4476 19.5 20.6383 19.579 20.779 19.7197C20.9196 19.8603 20.9986 20.0511 20.9986 20.25ZM23.2486 12.75V15C23.2486 15.1989 23.1696 15.3897 23.029 15.5303C22.8883 15.671 22.6976 15.75 22.4986 15.75H5.72395C4.91656 15.7537 4.1298 15.4951 3.48207 15.013C2.83434 14.531 2.36069 13.8516 2.13239 13.0772L0.813329 8.68125C0.746128 8.45737 0.732176 8.22089 0.772588 7.99067C0.812999 7.76044 0.906655 7.54285 1.04608 7.35524C1.18551 7.16764 1.36686 7.01521 1.57565 6.91013C1.78444 6.80505 2.0149 6.75021 2.24864 6.75H2.99864C3.19729 6.75009 3.38779 6.82899 3.52833 6.96938L5.55989 9H7.66833L6.82458 6.47438C6.74938 6.24881 6.72889 6.0086 6.76478 5.77355C6.80068 5.53851 6.89193 5.31537 7.03103 5.12252C7.17012 4.92968 7.35306 4.77267 7.56476 4.66443C7.77647 4.55619 8.01087 4.49983 8.24864 4.5H8.99864C9.09716 4.49992 9.19473 4.51926 9.28578 4.5569C9.37683 4.59454 9.45956 4.64975 9.52927 4.71938L13.8099 9H19.4986C20.4932 9 21.447 9.39509 22.1503 10.0984C22.8536 10.8016 23.2486 11.7554 23.2486 12.75ZM21.7486 12.75C21.7486 12.1533 21.5116 11.581 21.0896 11.159C20.6677 10.7371 20.0954 10.5 19.4986 10.5H13.4986C13.3 10.4999 13.1095 10.421 12.969 10.2806L8.68833 6H8.24864L9.41958 9.51281C9.45714 9.62548 9.4674 9.74546 9.44953 9.86288C9.43165 9.98029 9.38615 10.0918 9.31677 10.1882C9.24738 10.2846 9.1561 10.3631 9.05043 10.4173C8.94475 10.4715 8.82772 10.4999 8.70895 10.5H5.24864C5.15012 10.5001 5.05255 10.4807 4.9615 10.4431C4.87046 10.4055 4.78772 10.3503 4.71802 10.2806L2.68833 8.25H2.24864L3.5677 12.6469C3.70485 13.1117 3.98928 13.5193 4.37817 13.8084C4.76706 14.0976 5.23936 14.2525 5.72395 14.25H21.7486V12.75Z" fill="#8C7004"/>
</svg>
