<svg width="24" height="24" viewBox="0 0 24 24" fill="none" xmlns="http://www.w3.org/2000/svg">
<path d="M19.6516 3.75C17.6266 1.875 14.9641 0.75 12.0016 0.75C9.03906 0.75 6.37656 1.875 4.35156 3.75H19.6516ZM4.35156 20.25C6.37656 22.125 9.03906 23.25 12.0016 23.25C14.9641 23.25 17.6266 22.125 19.6516 20.25H4.35156Z" fill="#ED4C5C"/>
<path d="M0.75 12C0.75 13.6125 1.0875 15.1125 1.6875 16.5H22.3125C22.9125 15.1125 23.25 13.6125 23.25 12C23.25 10.3875 22.9125 8.8875 22.3125 7.5H1.6875C1.0875 8.8875 0.75 10.3875 0.75 12Z" fill="#2A5F9E"/>
<path d="M4.34844 20.25H19.6109C20.7359 19.2 21.6734 17.925 22.2734 16.5H1.64844C2.32344 17.925 3.22344 19.2 4.34844 20.25ZM19.6484 3.75H4.34844C3.22344 4.8 2.28594 6.075 1.68594 7.5H22.3109C21.6734 6.075 20.7734 4.8 19.6484 3.75Z" fill="#F9F9F9"/>
</svg>
